<svg xmlns="http://www.w3.org/2000/svg" version="1.1" xmlns:xlink="http://www.w3.org/1999/xlink" width="40" height="40"><svg xmlns="http://www.w3.org/2000/svg" width="40" height="40" viewBox="0 0 40 40" id="SvgjsSvg1001">
  <g fill="none" fill-rule="evenodd">
    <circle cx="20" cy="20" r="20" fill="#FFF"></circle>
    <path fill="#FA9013" d="M27,11.3703216 L27,9.6 C27,9.26862915 27.2686292,9 27.6,9 L29.4,9 C29.7313708,9 30,9.26862915 30,9.6 L30,13.8012149 L33.1581749,16.360277 C33.3126502,16.4854479 33.3364061,16.712146 33.2112351,16.8666213 C33.1428812,16.9509778 33.0401066,16.9999792 32.9315328,16.9999792 L30.5,16.9999792 L30.5,29.5 C30.5,30.0522847 30.0522847,30.5 29.5,30.5 L10.5,30.5 C9.94771525,30.5 9.5,30.0522847 9.5,29.5 L9.5,16.9999792 L7.06618272,16.9999792 C6.86736021,16.9999792 6.70618272,16.8388017 6.70618272,16.6399792 C6.70618272,16.5314054 6.75518412,16.4286308 6.8395406,16.360277 L19.6211209,6.00339113 C19.8413356,5.8249517 20.15638,5.8249517 20.3765946,6.00339113 L27,11.3703216 Z"></path>
    <path fill="#FFB22C" d="M20.3746773,9.14372547 L27.8857787,15.0676118 C27.9579098,15.1245004 28,15.2113018 28,15.303167 L28,27.4 C28,27.7313708 27.7313708,28 27.4,28 L12.6,28 C12.2686292,28 12,27.7313708 12,27.4 L12,15.4079648 C12,15.3169561 12.0413127,15.2308675 12.1123102,15.1739295 L19.6277403,9.14676529 C19.845656,8.97200299 20.1553463,8.97074264 20.3746773,9.14372547 Z"></path>
    <path fill="#FFCD59" d="M20.3684227,12.6244849 L25.3787552,16.3418636 C25.4550283,16.3984539 25.5,16.4878184 25.5,16.5827922 L25.5,24.9 C25.5,25.2313708 25.2313708,25.5 24.9,25.5 L15.1,25.5 C14.7686292,25.5 14.5,25.2313708 14.5,24.9 L14.5,16.8292927 C14.5,16.7373662 14.542146,16.650514 14.6143583,16.5936294 L19.639629,12.6350156 C19.8523495,12.4674468 20.1509494,12.4631322 20.3684227,12.6244849 Z"></path>
    <path fill="#FFE780" d="M20.1803973,15.8780301 L22.8803952,17.9099881 C22.9557045,17.9666642 23,18.0554379 23,18.1496912 L23,22.7 C23,22.8656854 22.8656854,23 22.7,23 L17.3,23 C17.1343146,23 17,22.8656854 17,22.7 L17,18.1496913 C17,18.055438 17.0442956,17.9666642 17.119605,17.9099881 L19.8196071,15.8780299 C19.9264344,15.7976342 20.07357,15.7976342 20.1803973,15.8780301 Z"></path>
  </g>
</svg><style>@media (prefers-color-scheme: light) { :root { filter: none; } }
@media (prefers-color-scheme: dark) { :root { filter: none; } }
</style></svg>